<svg id="b2dbf20e-ce89-4b2a-95cc-9af42ce2c7d8" data-name="Layer 1" xmlns="http://www.w3.org/2000/svg" width="6.29in" height="2.12in" viewBox="0 0 453.1 152.7"><g id="fbd3e030-3b73-43ba-9981-2cd2392d0e1e" data-name="Line Break (Vert.)"><rect x="36.94" y="0.75" width="95.85" height="151.2" fill="#bbe1d2" stroke="#393d4f" stroke-miterlimit="10" stroke-width="1.5"/><polygon points="32.07 24.47 32.07 19.15 43.82 19.15 43.82 42.43 32.07 42.43 32.07 36.89 0.75 34.45 0.75 27.8 32.07 24.47" fill="#c6e8fa" stroke="#393d4f" stroke-miterlimit="10" stroke-width="1.5"/><polygon points="32.07 59.72 32.07 54.4 43.82 54.4 43.82 77.68 32.07 77.68 32.07 72.14 0.75 69.7 0.75 63.05 32.07 59.72" fill="#c6e8fa" stroke="#393d4f" stroke-miterlimit="10" stroke-width="1.5"/><polygon points="32.07 94.97 32.07 89.65 43.82 89.65 43.82 112.93 32.07 112.93 32.07 107.39 0.75 104.95 0.75 98.3 32.07 94.97" fill="#c6e8fa" stroke="#393d4f" stroke-miterlimit="10" stroke-width="1.5"/><polygon points="32.07 130.22 32.07 124.9 43.82 124.9 43.82 148.18 32.07 148.18 32.07 142.63 0.75 140.2 0.75 133.54 32.07 130.22" fill="#c6e8fa" stroke="#393d4f" stroke-miterlimit="10" stroke-width="1.5"/><polygon points="137.12 24.47 137.12 19.15 125.37 19.15 125.37 42.43 137.12 42.43 137.12 36.89 168.44 34.45 168.44 27.8 137.12 24.47" fill="#c6e8fa" stroke="#393d4f" stroke-miterlimit="10" stroke-width="1.5"/><polygon points="137.12 59.72 137.12 54.4 125.37 54.4 125.37 77.68 137.12 77.68 137.12 72.14 168.44 69.7 168.44 63.05 137.12 59.72" fill="#c6e8fa" stroke="#393d4f" stroke-miterlimit="10" stroke-width="1.5"/><polygon points="137.12 94.97 137.12 89.65 125.37 89.65 125.37 112.93 137.12 112.93 137.12 107.39 168.44 104.95 168.44 98.3 137.12 94.97" fill="#c6e8fa" stroke="#393d4f" stroke-miterlimit="10" stroke-width="1.5"/><polygon points="137.12 130.22 137.12 124.9 125.37 124.9 125.37 148.18 137.12 148.18 137.12 142.63 168.44 140.2 168.44 133.54 137.12 130.22" fill="#c6e8fa" stroke="#393d4f" stroke-miterlimit="10" stroke-width="1.5"/><path d="M78.9,8.69h1.4a.12.12,0,0,1,.1,0,.14.14,0,0,1,0,.1V17a.14.14,0,0,1,0,.1.12.12,0,0,1-.1,0H78.9a.12.12,0,0,1-.1,0,.14.14,0,0,1,0-.1v-5.3s0-.05,0-.05,0,0,0,0l-1.27,2a.19.19,0,0,1-.17.1h-.71a.17.17,0,0,1-.16-.1l-1.28-2a.05.05,0,0,0,0,0s0,0,0,.06V17a.14.14,0,0,1-.14.14H73.47a.14.14,0,0,1-.14-.14V8.83a.14.14,0,0,1,.14-.14h1.41a.19.19,0,0,1,.17.1l1.8,2.79c0,.05,0,.05.07,0l1.81-2.79A.19.19,0,0,1,78.9,8.69Z" fill="#393d4f"/><path d="M85.65,11.1a2.24,2.24,0,0,1,1,.73A1.71,1.71,0,0,1,87,12.88V17a.14.14,0,0,1-.14.14H85.4a.14.14,0,0,1-.14-.14v-.4a0,0,0,0,0,0-.05s0,0,0,0a1.89,1.89,0,0,1-1.62.66,2.41,2.41,0,0,1-1.52-.45,1.61,1.61,0,0,1-.57-1.34A1.71,1.71,0,0,1,82.13,14,2.9,2.9,0,0,1,84,13.44H85.2a.05.05,0,0,0,.06-.06v-.26A.8.8,0,0,0,85,12.5a1,1,0,0,0-.72-.22,1.27,1.27,0,0,0-.62.13.64.64,0,0,0-.32.37q0,.13-.15.12l-1.46-.19c-.09,0-.14-.05-.13-.11a1.63,1.63,0,0,1,.4-.91,2.49,2.49,0,0,1,.94-.64,3.58,3.58,0,0,1,1.3-.22A3.38,3.38,0,0,1,85.65,11.1Zm-.75,4.55a.85.85,0,0,0,.36-.71v-.43a.05.05,0,0,0-.06-.06h-.87a1.53,1.53,0,0,0-.84.2.65.65,0,0,0-.31.58.62.62,0,0,0,.23.51,1,1,0,0,0,.61.19A1.42,1.42,0,0,0,84.9,15.65Z" fill="#393d4f"/><path d="M88.37,10a1,1,0,0,1,0-1.37A1,1,0,0,1,90,9.28a.94.94,0,0,1-.27.68,1,1,0,0,1-1.36,0Zm-.14,7.09a.13.13,0,0,1,0-.1v-5.9a.14.14,0,0,1,.14-.14h1.4a.15.15,0,0,1,.11,0,.18.18,0,0,1,0,.1V17a.18.18,0,0,1,0,.1.15.15,0,0,1-.11,0h-1.4A.13.13,0,0,1,88.23,17.05Z" fill="#393d4f"/><path d="M96,11.41a2.19,2.19,0,0,1,.59,1.6V17a.14.14,0,0,1-.14.14H95a.14.14,0,0,1-.14-.14V13.36a1.12,1.12,0,0,0-.27-.78,1,1,0,0,0-1.43,0,1.12,1.12,0,0,0-.27.78V17a.14.14,0,0,1-.14.14H91.34A.14.14,0,0,1,91.2,17V11.06a.14.14,0,0,1,0-.1.13.13,0,0,1,.1,0h1.41a.13.13,0,0,1,.1,0,.14.14,0,0,1,0,.1v.43s0,0,0,0,0,0,0,0a1.69,1.69,0,0,1,1.46-.69A2.1,2.1,0,0,1,96,11.41Z" fill="#393d4f"/><path d="M98.72,69.36a2.53,2.53,0,0,1-1.11-.88,2.28,2.28,0,0,1-.39-1.32v-.27a.14.14,0,0,1,.14-.14h1.37a.12.12,0,0,1,.1,0,.14.14,0,0,1,0,.1v.18a1,1,0,0,0,.44.81,2,2,0,0,0,1.2.33,1.44,1.44,0,0,0,1-.27.83.83,0,0,0,.31-.66.66.66,0,0,0-.19-.49,1.75,1.75,0,0,0-.52-.35c-.22-.1-.57-.24-1-.41a10.34,10.34,0,0,1-1.37-.57,2.7,2.7,0,0,1-.93-.78,2,2,0,0,1-.38-1.23,2.15,2.15,0,0,1,.37-1.26,2.36,2.36,0,0,1,1-.83,3.83,3.83,0,0,1,1.53-.29,3.78,3.78,0,0,1,1.62.33,2.58,2.58,0,0,1,1.12.9,2.31,2.31,0,0,1,.4,1.35v.18a.12.12,0,0,1,0,.1.14.14,0,0,1-.1,0h-1.38a.18.18,0,0,1-.15-.15v-.09a1.06,1.06,0,0,0-.41-.86,1.67,1.67,0,0,0-1.13-.36,1.47,1.47,0,0,0-.89.24.78.78,0,0,0-.31.66.76.76,0,0,0,.18.51,1.69,1.69,0,0,0,.55.36c.25.11.63.26,1.14.44s1,.39,1.34.55a2.66,2.66,0,0,1,.87.72,1.85,1.85,0,0,1,.39,1.23,2.13,2.13,0,0,1-.83,1.78,3.49,3.49,0,0,1-2.24.65A4.34,4.34,0,0,1,98.72,69.36Z" fill="#393d4f"/><path d="M104.7,69.53a.15.15,0,0,1,0-.11V61.31a.14.14,0,0,1,.14-.14h3a3.57,3.57,0,0,1,1.58.32,2.49,2.49,0,0,1,1.05.89,2.38,2.38,0,0,1,.37,1.33V67a2.41,2.41,0,0,1-.37,1.34,2.49,2.49,0,0,1-1.05.89,3.71,3.71,0,0,1-1.58.32h-3A.18.18,0,0,1,104.7,69.53Zm1.71-1.41h1.45a1.17,1.17,0,0,0,.9-.38,1.44,1.44,0,0,0,.35-1V64a1.41,1.41,0,0,0-.34-1,1.18,1.18,0,0,0-.92-.37h-1.44a.05.05,0,0,0-.06.06v5.38A.05.05,0,0,0,106.41,68.12Z" fill="#393d4f"/><path d="M117.26,69.45l-.36-1.18s0,0-.06,0h-3a.06.06,0,0,0-.06,0l-.35,1.18a.15.15,0,0,1-.16.12H111.8a.18.18,0,0,1-.11,0,.14.14,0,0,1,0-.13l2.59-8.11a.16.16,0,0,1,.16-.12h1.88a.16.16,0,0,1,.16.12l2.59,8.11a.13.13,0,0,1,0,.06c0,.07,0,.11-.13.11h-1.52A.15.15,0,0,1,117.26,69.45Zm-3-2.53h2.11s.06,0,0-.08l-1.08-3.56s0-.05,0,0,0,0,0,0l-1.06,3.56S114.27,66.92,114.31,66.92Z" fill="#393d4f"/><path d="M100,140.3a2.46,2.46,0,0,1-1.11-.88,2.28,2.28,0,0,1-.39-1.32v-.27a.14.14,0,0,1,.14-.14H100a.14.14,0,0,1,.14.14V138a1,1,0,0,0,.45.81,1.94,1.94,0,0,0,1.2.33,1.44,1.44,0,0,0,1-.27.86.86,0,0,0,.31-.66.71.71,0,0,0-.19-.49,1.81,1.81,0,0,0-.53-.35c-.22-.1-.57-.23-1.05-.41a10.23,10.23,0,0,1-1.36-.56,2.84,2.84,0,0,1-.93-.79,1.92,1.92,0,0,1-.38-1.23,2.15,2.15,0,0,1,.37-1.26,2.36,2.36,0,0,1,1-.83,4.16,4.16,0,0,1,3.15,0,2.65,2.65,0,0,1,1.12.9,2.31,2.31,0,0,1,.4,1.35v.18a.15.15,0,0,1,0,.11.18.18,0,0,1-.1,0H103.2a.14.14,0,0,1-.15-.15v-.09a1.11,1.11,0,0,0-.41-.86,1.69,1.69,0,0,0-1.14-.35,1.44,1.44,0,0,0-.88.24.79.79,0,0,0-.32.66.74.74,0,0,0,.19.5,1.6,1.6,0,0,0,.55.37c.25.1.62.25,1.14.43s1,.4,1.33.56a2.56,2.56,0,0,1,.88.71,1.89,1.89,0,0,1,.39,1.23A2.15,2.15,0,0,1,104,140a3.49,3.49,0,0,1-2.24.66A4.34,4.34,0,0,1,100,140.3Z" fill="#393d4f"/><path d="M107.28,140.24a2.61,2.61,0,0,1-1.1-1,3,3,0,0,1-.38-1.52v-2.77a3,3,0,0,1,.38-1.53,2.59,2.59,0,0,1,1.1-1,3.57,3.57,0,0,1,1.64-.36,3.66,3.66,0,0,1,1.63.35,2.57,2.57,0,0,1,1.09,1,2.7,2.7,0,0,1,.39,1.46c0,.07,0,.11-.15.13l-1.4.08h0c-.08,0-.12,0-.12-.13a1.38,1.38,0,0,0-.39-1,1.6,1.6,0,0,0-2.07,0,1.38,1.38,0,0,0-.39,1v2.89a1.36,1.36,0,0,0,.39,1,1.6,1.6,0,0,0,2.07,0,1.36,1.36,0,0,0,.39-1c0-.09,0-.13.14-.13l1.4.06a.15.15,0,0,1,.11,0,.12.12,0,0,1,0,.08,2.72,2.72,0,0,1-.39,1.46,2.61,2.61,0,0,1-1.09,1,3.66,3.66,0,0,1-1.63.35A3.57,3.57,0,0,1,107.28,140.24Z" fill="#393d4f"/><path d="M113.31,140.47a.14.14,0,0,1,0-.1v-8.12a.14.14,0,0,1,0-.1.12.12,0,0,1,.1,0h1.4a.12.12,0,0,1,.1,0,.14.14,0,0,1,0,.1V139a.05.05,0,0,0,.06.06h3.92a.14.14,0,0,1,.14.14v1.17a.14.14,0,0,1-.14.14h-5.53A.12.12,0,0,1,113.31,140.47Z" fill="#393d4f"/><rect x="320.86" y="0.75" width="95.85" height="151.2" fill="#bbe1d2" stroke="#393d4f" stroke-miterlimit="10" stroke-width="1.5"/><polygon points="315.98 24.47 315.98 19.15 327.73 19.15 327.73 42.43 315.98 42.43 315.98 36.89 284.66 34.45 284.66 27.8 315.98 24.47" fill="#c6e8fa" stroke="#393d4f" stroke-miterlimit="10" stroke-width="1.5"/><polygon points="315.98 59.72 315.98 54.4 327.73 54.4 327.73 77.68 315.98 77.68 315.98 72.14 284.66 69.7 284.66 63.05 315.98 59.72" fill="#c6e8fa" stroke="#393d4f" stroke-miterlimit="10" stroke-width="1.5"/><polygon points="315.98 94.97 315.98 89.65 327.73 89.65 327.73 112.93 315.98 112.93 315.98 107.39 284.66 104.95 284.66 98.3 315.98 94.97" fill="#c6e8fa" stroke="#393d4f" stroke-miterlimit="10" stroke-width="1.5"/><polygon points="315.98 130.22 315.98 124.9 327.73 124.9 327.73 148.18 315.98 148.18 315.98 142.63 284.66 140.2 284.66 133.54 315.98 130.22" fill="#c6e8fa" stroke="#393d4f" stroke-miterlimit="10" stroke-width="1.5"/><polygon points="421.03 24.47 421.03 19.15 409.28 19.15 409.28 42.43 421.03 42.43 421.03 36.89 452.35 34.45 452.35 27.8 421.03 24.47" fill="#c6e8fa" stroke="#393d4f" stroke-miterlimit="10" stroke-width="1.5"/><polygon points="421.03 59.72 421.03 54.4 409.28 54.4 409.28 77.68 421.03 77.68 421.03 72.14 452.35 69.7 452.35 63.05 421.03 59.72" fill="#c6e8fa" stroke="#393d4f" stroke-miterlimit="10" stroke-width="1.5"/><polygon points="421.03 94.97 421.03 89.65 409.28 89.65 409.28 112.93 421.03 112.93 421.03 107.39 452.35 104.95 452.35 98.3 421.03 94.97" fill="#c6e8fa" stroke="#393d4f" stroke-miterlimit="10" stroke-width="1.5"/><polygon points="421.03 130.22 421.03 124.9 409.28 124.9 409.28 148.18 421.03 148.18 421.03 142.63 452.35 140.2 452.35 133.54 421.03 130.22" fill="#c6e8fa" stroke="#393d4f" stroke-miterlimit="10" stroke-width="1.5"/><path d="M360.37,8.73a.15.15,0,0,1,.11,0h1.4a.14.14,0,0,1,.14.14V17a.14.14,0,0,1-.14.14h-1.36a.15.15,0,0,1-.16-.1l-3.11-5.13s0,0-.05,0,0,0,0,.05l0,5.07a.14.14,0,0,1-.14.14h-1.41a.14.14,0,0,1-.14-.14V8.83a.14.14,0,0,1,.14-.14H357a.18.18,0,0,1,.17.1l3.09,5.11s0,0,.05,0,0,0,0-.06v-5A.18.18,0,0,1,360.37,8.73Z" fill="#393d4f"/><path d="M364.38,16.66a2.6,2.6,0,0,1-1-1.44,4.4,4.4,0,0,1-.17-1.23,4.54,4.54,0,0,1,.17-1.27,2.63,2.63,0,0,1,1-1.39,2.9,2.9,0,0,1,1.73-.5,2.85,2.85,0,0,1,1.68.49,2.71,2.71,0,0,1,1,1.39A4,4,0,0,1,369,14a3.93,3.93,0,0,1-.17,1.21,2.63,2.63,0,0,1-1,1.47,3.1,3.1,0,0,1-3.45,0Zm2.39-1.17a1.3,1.3,0,0,0,.4-.66,3.58,3.58,0,0,0,.1-.84,3.42,3.42,0,0,0-.1-.85,1.29,1.29,0,0,0-.41-.63,1.11,1.11,0,0,0-1.35,0,1.26,1.26,0,0,0-.39.63,3,3,0,0,0-.09.85,3.6,3.6,0,0,0,.08.84,1.37,1.37,0,0,0,.4.66,1,1,0,0,0,.69.24A1,1,0,0,0,366.77,15.49Z" fill="#393d4f"/><path d="M373.93,8.73a.15.15,0,0,1,.11,0h1.4a.14.14,0,0,1,.14.14V17a.14.14,0,0,1-.14.14H374a.15.15,0,0,1-.11,0,.18.18,0,0,1,0-.1v-.4s0,0,0,0,0,0-.05,0a1.63,1.63,0,0,1-1.38.66,2.33,2.33,0,0,1-1.45-.46,2.61,2.61,0,0,1-.87-1.29,4.84,4.84,0,0,1-.2-1.45,4.5,4.5,0,0,1,.22-1.49,2.59,2.59,0,0,1,.87-1.22,2.34,2.34,0,0,1,1.47-.44,1.62,1.62,0,0,1,1.34.6s0,0,.05,0a.06.06,0,0,0,0,0V8.83A.18.18,0,0,1,373.93,8.73ZM373.88,14a2.57,2.57,0,0,0-.26-1.26.89.89,0,0,0-.81-.47.93.93,0,0,0-.85.47,2.32,2.32,0,0,0-.3,1.27,2.54,2.54,0,0,0,.25,1.2,1,1,0,0,0,.89.51.93.93,0,0,0,.84-.51A2.57,2.57,0,0,0,373.88,14Z" fill="#393d4f"/><path d="M382.36,14.39c0,.1-.06.14-.15.14H378.5c-.05,0-.06,0-.05.06a2.85,2.85,0,0,0,.13.48,1.27,1.27,0,0,0,1.28.68,1.46,1.46,0,0,0,1.21-.63.13.13,0,0,1,.11-.07.15.15,0,0,1,.08,0l.86.85a.17.17,0,0,1,.06.11.25.25,0,0,1,0,.09,2.71,2.71,0,0,1-1,.77,3.45,3.45,0,0,1-1.37.26,3.15,3.15,0,0,1-1.75-.46,2.57,2.57,0,0,1-1-1.31,4,4,0,0,1-.26-1.57,3.51,3.51,0,0,1,.18-1.17,2.63,2.63,0,0,1,1-1.35,2.94,2.94,0,0,1,3.56.19,3,3,0,0,1,.89,1.86A5.5,5.5,0,0,1,382.36,14.39ZM378.52,13a2.49,2.49,0,0,0-.08.38.05.05,0,0,0,.06.06h2.08s.06,0,0-.06l-.06-.34a1,1,0,0,0-.37-.56,1.13,1.13,0,0,0-.67-.19A1,1,0,0,0,378.52,13Z" fill="#393d4f"/><path d="M334.79,69.36a2.53,2.53,0,0,1-1.11-.88,2.28,2.28,0,0,1-.39-1.32v-.27a.14.14,0,0,1,.14-.14h1.37a.14.14,0,0,1,.14.14v.18a1,1,0,0,0,.45.81,1.94,1.94,0,0,0,1.2.33,1.44,1.44,0,0,0,1-.27.86.86,0,0,0,.31-.66.7.7,0,0,0-.19-.49,1.81,1.81,0,0,0-.53-.35c-.22-.1-.57-.24-1.05-.41a10.16,10.16,0,0,1-1.36-.57,2.7,2.7,0,0,1-.93-.78,1.92,1.92,0,0,1-.38-1.23,2.15,2.15,0,0,1,.37-1.26,2.36,2.36,0,0,1,1-.83,4.16,4.16,0,0,1,3.15,0,2.58,2.58,0,0,1,1.12.9,2.31,2.31,0,0,1,.4,1.35v.18a.12.12,0,0,1,0,.1.14.14,0,0,1-.1,0H338a.16.16,0,0,1-.11,0,.15.15,0,0,1,0-.1v-.09a1.09,1.09,0,0,0-.41-.86,1.69,1.69,0,0,0-1.14-.36,1.44,1.44,0,0,0-.88.24.79.79,0,0,0-.32.66.76.76,0,0,0,.19.51,1.59,1.59,0,0,0,.55.36c.25.11.62.26,1.14.44s1,.39,1.33.55a2.59,2.59,0,0,1,.88.72,1.85,1.85,0,0,1,.39,1.23,2.16,2.16,0,0,1-.83,1.78,3.49,3.49,0,0,1-2.24.65A4.34,4.34,0,0,1,334.79,69.36Z" fill="#393d4f"/><path d="M340.77,69.53a.15.15,0,0,1,0-.11V61.31a.14.14,0,0,1,.14-.14h3a3.57,3.57,0,0,1,1.58.32,2.49,2.49,0,0,1,1.05.89,2.38,2.38,0,0,1,.37,1.33V67a2.41,2.41,0,0,1-.37,1.34,2.49,2.49,0,0,1-1.05.89,3.71,3.71,0,0,1-1.58.32h-3A.18.18,0,0,1,340.77,69.53Zm1.71-1.41h1.45a1.17,1.17,0,0,0,.9-.38,1.49,1.49,0,0,0,.35-1V64a1.41,1.41,0,0,0-.34-1,1.19,1.19,0,0,0-.92-.37h-1.44a.05.05,0,0,0-.06.06v5.38A.05.05,0,0,0,342.48,68.12Z" fill="#393d4f"/><path d="M353.33,69.45,353,68.27s0,0-.06,0h-3a.06.06,0,0,0-.06,0l-.35,1.18a.16.16,0,0,1-.16.12h-1.52a.16.16,0,0,1-.11,0,.14.14,0,0,1,0-.13l2.59-8.11a.15.15,0,0,1,.16-.12h1.88a.16.16,0,0,1,.16.12l2.59,8.11a.13.13,0,0,1,0,.06c0,.07,0,.11-.13.11h-1.53A.14.14,0,0,1,353.33,69.45Zm-2.95-2.53h2.11c.05,0,.06,0,.05-.08l-1.08-3.56s0-.05,0,0,0,0,0,0l-1.05,3.56S350.34,66.92,350.38,66.92Z" fill="#393d4f"/><path d="M334.79,140.3a2.46,2.46,0,0,1-1.11-.88,2.28,2.28,0,0,1-.39-1.32v-.27a.14.14,0,0,1,.14-.14h1.37a.14.14,0,0,1,.14.14V138a1,1,0,0,0,.45.81,1.94,1.94,0,0,0,1.2.33,1.44,1.44,0,0,0,1-.27.86.86,0,0,0,.31-.66.71.71,0,0,0-.19-.49,1.81,1.81,0,0,0-.53-.35c-.22-.1-.57-.23-1.05-.41a10.23,10.23,0,0,1-1.36-.56,2.84,2.84,0,0,1-.93-.79,1.92,1.92,0,0,1-.38-1.23,2.15,2.15,0,0,1,.37-1.26,2.36,2.36,0,0,1,1-.83,4.16,4.16,0,0,1,3.15,0,2.65,2.65,0,0,1,1.12.9,2.31,2.31,0,0,1,.4,1.35v.18a.15.15,0,0,1,0,.11.18.18,0,0,1-.1,0H338a.14.14,0,0,1-.15-.15v-.09a1.11,1.11,0,0,0-.41-.86,1.69,1.69,0,0,0-1.14-.35,1.44,1.44,0,0,0-.88.24.79.79,0,0,0-.32.66.74.74,0,0,0,.19.5,1.6,1.6,0,0,0,.55.37c.25.1.62.25,1.14.43s1,.4,1.33.56a2.56,2.56,0,0,1,.88.71,1.89,1.89,0,0,1,.39,1.23,2.15,2.15,0,0,1-.83,1.78,3.49,3.49,0,0,1-2.24.66A4.34,4.34,0,0,1,334.79,140.3Z" fill="#393d4f"/><path d="M342,140.24a2.61,2.61,0,0,1-1.1-1,3,3,0,0,1-.38-1.52v-2.77a3,3,0,0,1,.38-1.53,2.59,2.59,0,0,1,1.1-1,3.57,3.57,0,0,1,1.64-.36,3.66,3.66,0,0,1,1.63.35,2.57,2.57,0,0,1,1.09,1,2.7,2.7,0,0,1,.39,1.46c0,.07-.05.11-.15.13l-1.4.08h0c-.08,0-.12,0-.12-.13a1.38,1.38,0,0,0-.39-1,1.6,1.6,0,0,0-2.07,0,1.38,1.38,0,0,0-.39,1v2.89a1.36,1.36,0,0,0,.39,1,1.6,1.6,0,0,0,2.07,0,1.36,1.36,0,0,0,.39-1c0-.09,0-.13.14-.13l1.4.06a.15.15,0,0,1,.11,0,.12.12,0,0,1,0,.08,2.72,2.72,0,0,1-.39,1.46,2.61,2.61,0,0,1-1.09,1,3.66,3.66,0,0,1-1.63.35A3.57,3.57,0,0,1,342,140.24Z" fill="#393d4f"/><path d="M348.07,140.47a.14.14,0,0,1-.05-.1v-8.12a.14.14,0,0,1,.05-.1.12.12,0,0,1,.1,0h1.4a.13.13,0,0,1,.1,0,.14.14,0,0,1,.05.1V139a.05.05,0,0,0,.06.06h3.92a.14.14,0,0,1,.14.14v1.17a.14.14,0,0,1-.14.14h-5.53A.12.12,0,0,1,348.07,140.47Z" fill="#393d4f"/></g><g id="a147db92-7a88-4ef2-94a1-c80c44888db6" data-name="Arrow (.75 pt)"><polygon points="271.12 69.66 284.66 66.23 271.22 62.42 271.12 69.66" fill="#393d4f"/><polygon points="181.98 69.66 168.44 66.23 181.88 62.42 181.98 69.66" fill="#393d4f"/><line x1="274.36" y1="66.04" x2="176.57" y2="66.04" fill="none" stroke="#393d4f" stroke-miterlimit="10" stroke-width="1.5"/><polygon points="271.12 140.15 284.66 136.73 271.22 132.92 271.12 140.15" fill="#393d4f"/><line x1="274.36" y1="136.54" x2="168.44" y2="136.54" fill="none" stroke="#393d4f" stroke-miterlimit="10" stroke-width="1.5"/></g></svg>