<svg id="a50fcdf0-7d6e-4b0d-84c9-b7825319da51" data-name="Layer 1" xmlns="http://www.w3.org/2000/svg" width="6.26in" height="2.23in" viewBox="0 0 450.54 160.79"><g id="a09f3392-a1ca-4765-bd37-02c67afc14c0" data-name="Line Break (Vert.)"><path d="M429.87,103.3a2.46,2.46,0,0,1-1.11-.88,2.28,2.28,0,0,1-.39-1.32v-.27a.14.14,0,0,1,.14-.14h1.37a.14.14,0,0,1,.14.14V101a1,1,0,0,0,.45.81,1.94,1.94,0,0,0,1.2.33,1.44,1.44,0,0,0,.95-.27.86.86,0,0,0,.31-.66.71.71,0,0,0-.19-.49,1.81,1.81,0,0,0-.53-.35c-.22-.1-.57-.23-1-.41a10.23,10.23,0,0,1-1.36-.56,2.84,2.84,0,0,1-.93-.79,1.92,1.92,0,0,1-.38-1.23,2.15,2.15,0,0,1,.37-1.26,2.36,2.36,0,0,1,1-.83,4.16,4.16,0,0,1,3.15,0,2.65,2.65,0,0,1,1.12.9,2.31,2.31,0,0,1,.4,1.35v.18a.15.15,0,0,1,0,.11.18.18,0,0,1-.1,0H433a.14.14,0,0,1-.15-.15v-.09a1.11,1.11,0,0,0-.41-.86,1.69,1.69,0,0,0-1.14-.35,1.44,1.44,0,0,0-.88.24.79.79,0,0,0-.32.66.74.74,0,0,0,.19.5,1.6,1.6,0,0,0,.55.37c.25.1.62.25,1.14.43s1,.4,1.33.56a2.56,2.56,0,0,1,.88.71,1.89,1.89,0,0,1,.39,1.23,2.15,2.15,0,0,1-.83,1.78,3.49,3.49,0,0,1-2.24.66A4.34,4.34,0,0,1,429.87,103.3Z" fill="#393d4f"/><path d="M435.85,103.47a.13.13,0,0,1,0-.1V95.25a.14.14,0,0,1,.14-.14h3a3.71,3.71,0,0,1,1.58.32,2.49,2.49,0,0,1,1.05.89,2.4,2.4,0,0,1,.37,1.33V101a2.4,2.4,0,0,1-.37,1.33,2.49,2.49,0,0,1-1.05.89,3.71,3.71,0,0,1-1.58.32h-3A.13.13,0,0,1,435.85,103.47Zm1.71-1.41H439a1.2,1.2,0,0,0,.9-.37,1.51,1.51,0,0,0,.35-1V97.93a1.41,1.41,0,0,0-.34-1,1.23,1.23,0,0,0-.92-.37h-1.44a.05.05,0,0,0-.06.06V102A.05.05,0,0,0,437.56,102.06Z" fill="#393d4f"/><path d="M448.41,103.39l-.36-1.18a.07.07,0,0,0-.06,0H445a.05.05,0,0,0-.06,0l-.35,1.18a.16.16,0,0,1-.16.12H443a.12.12,0,0,1-.11,0,.14.14,0,0,1,0-.13l2.59-8.11a.15.15,0,0,1,.16-.12h1.88a.16.16,0,0,1,.16.12l2.59,8.11a.13.13,0,0,1,0,.06c0,.07,0,.11-.13.11h-1.53A.14.14,0,0,1,448.41,103.39Zm-3-2.53h2.11c.05,0,.06,0,.05-.07l-1.08-3.57s0,0,0,0,0,0,0,0l-1,3.57A.05.05,0,0,0,445.46,100.86Z" fill="#393d4f"/><path d="M431.18,63.4a2.53,2.53,0,0,1-1.11-.88,2.22,2.22,0,0,1-.39-1.33v-.26a.14.14,0,0,1,.14-.14h1.37a.14.14,0,0,1,.14.14v.18a1,1,0,0,0,.45.81,1.94,1.94,0,0,0,1.2.33,1.39,1.39,0,0,0,.94-.27.85.85,0,0,0,.32-.67.66.66,0,0,0-.2-.48,1.63,1.63,0,0,0-.52-.35c-.22-.1-.57-.24-1-.41a11.67,11.67,0,0,1-1.36-.57,2.83,2.83,0,0,1-.94-.78,2,2,0,0,1-.37-1.23,2.15,2.15,0,0,1,.37-1.26,2.36,2.36,0,0,1,1-.83,3.82,3.82,0,0,1,1.52-.29,4,4,0,0,1,1.63.32,2.67,2.67,0,0,1,1.12.91,2.38,2.38,0,0,1,.4,1.35v.18a.18.18,0,0,1,0,.1.15.15,0,0,1-.11,0h-1.38a.14.14,0,0,1-.14-.14v-.1a1.09,1.09,0,0,0-.41-.85,1.69,1.69,0,0,0-1.14-.36,1.44,1.44,0,0,0-.88.24.79.79,0,0,0-.32.66.72.72,0,0,0,.19.51,1.74,1.74,0,0,0,.55.36c.24.11.62.26,1.13.44a14.14,14.14,0,0,1,1.34.55,2.59,2.59,0,0,1,.88.72,1.85,1.85,0,0,1,.39,1.23,2.16,2.16,0,0,1-.83,1.78,3.55,3.55,0,0,1-2.24.65A4.34,4.34,0,0,1,431.18,63.4Z" fill="#393d4f"/><path d="M438.42,63.34a2.71,2.71,0,0,1-1.09-1,2.93,2.93,0,0,1-.38-1.52V58a2.93,2.93,0,0,1,.38-1.52,2.62,2.62,0,0,1,1.09-1,3.58,3.58,0,0,1,1.65-.36,3.64,3.64,0,0,1,1.62.34,2.66,2.66,0,0,1,1.1,1,2.72,2.72,0,0,1,.39,1.46c0,.07-.05.12-.15.13l-1.4.09h0c-.08,0-.12-.05-.12-.13a1.35,1.35,0,0,0-.39-1,1.38,1.38,0,0,0-1-.39,1.41,1.41,0,0,0-1,.39,1.35,1.35,0,0,0-.39,1v2.89a1.37,1.37,0,0,0,.39,1,1.45,1.45,0,0,0,1,.38,1.41,1.41,0,0,0,1-.38,1.37,1.37,0,0,0,.39-1c0-.09,0-.13.15-.13l1.4.06a.17.17,0,0,1,.1,0s.05,0,.05.09a2.72,2.72,0,0,1-.39,1.46,2.68,2.68,0,0,1-1.1,1,3.51,3.51,0,0,1-1.62.35A3.58,3.58,0,0,1,438.42,63.34Z" fill="#393d4f"/><path d="M444.45,63.56a.15.15,0,0,1,0-.1V55.35a.18.18,0,0,1,0-.1.13.13,0,0,1,.1,0H446a.14.14,0,0,1,.14.14v6.74a.05.05,0,0,0,.06.06h3.93a.14.14,0,0,1,.1.05.12.12,0,0,1,0,.1v1.16a.12.12,0,0,1,0,.1.14.14,0,0,1-.1,0h-5.54A.14.14,0,0,1,444.45,63.56Z" fill="#393d4f"/><path d="M436,16.37l-2.47-8.11v0c0-.08,0-.12.13-.12h1.51a.16.16,0,0,1,.17.12l1.59,5.86s0,0,0,0,0,0,0,0l1.57-5.86a.16.16,0,0,1,.17-.12h1.47a.13.13,0,0,1,.11.05.12.12,0,0,1,0,.12l-2.51,8.11a.14.14,0,0,1-.15.12h-1.51A.15.15,0,0,1,436,16.37Z" fill="#393d4f"/><path d="M441.17,19.46a.09.09,0,0,1,0-.07V14a.1.1,0,0,1,.1-.1h2a2.46,2.46,0,0,1,1.05.21,1.59,1.59,0,0,1,.7.6,1.55,1.55,0,0,1,.25.89v2.2a1.55,1.55,0,0,1-.25.89,1.59,1.59,0,0,1-.7.6,2.46,2.46,0,0,1-1.05.21h-2A.09.09,0,0,1,441.17,19.46Zm1.14-.94h1a.79.79,0,0,0,.6-.25.93.93,0,0,0,.23-.66V15.77a.89.89,0,0,0-.23-.66.76.76,0,0,0-.61-.25h-1s0,0,0,0v3.58S442.28,18.52,442.31,18.52Z" fill="#393d4f"/><path d="M446.12,19.46a.09.09,0,0,1,0-.07V14a.09.09,0,0,1,0-.07.07.07,0,0,1,.06,0h2a2.54,2.54,0,0,1,1.06.21,1.64,1.64,0,0,1,.7.6,1.62,1.62,0,0,1,.24.89v2.2a1.62,1.62,0,0,1-.24.89,1.64,1.64,0,0,1-.7.6,2.54,2.54,0,0,1-1.06.21h-2A.07.07,0,0,1,446.12,19.46Zm1.14-.94h1a.76.76,0,0,0,.6-.25,1,1,0,0,0,.24-.66V15.77a.93.93,0,0,0-.23-.66.78.78,0,0,0-.61-.25h-1s0,0,0,0v3.58S447.23,18.52,447.26,18.52Z" fill="#393d4f"/><path d="M154.54,32.28,153,29s0-.05-.07-.05h-1.12a.05.05,0,0,0-.06.06v3.28a.14.14,0,0,1-.14.14h-1.41a.14.14,0,0,1-.14-.14V24.14a.15.15,0,0,1,0-.11.18.18,0,0,1,.1,0h3.44a2.92,2.92,0,0,1,1.35.31,2.33,2.33,0,0,1,.9.89,2.75,2.75,0,0,1,.31,1.33,2.32,2.32,0,0,1-.41,1.4,2.16,2.16,0,0,1-1.13.82s-.06.05,0,.09l1.63,3.39a.2.2,0,0,1,0,.08c0,.06,0,.09-.14.09h-1.47A.16.16,0,0,1,154.54,32.28Zm-2.75-6.78v2.06a.05.05,0,0,0,.06.06h1.57a1.13,1.13,0,0,0,.82-.3,1,1,0,0,0,.32-.78,1,1,0,0,0-.32-.79,1.14,1.14,0,0,0-.82-.31h-1.57A.05.05,0,0,0,151.79,25.5Z" fill="#393d4f"/><path d="M163.08,29.32a4.73,4.73,0,0,1-.22,1.5A2.68,2.68,0,0,1,162,32a2.39,2.39,0,0,1-1.48.45,1.62,1.62,0,0,1-1.34-.6s0,0,0,0a.08.08,0,0,0,0,.05v2.57a.13.13,0,0,1,0,.1.14.14,0,0,1-.1,0h-1.41a.14.14,0,0,1-.14-.14V26.37a.12.12,0,0,1,0-.1.14.14,0,0,1,.1-.05H159a.16.16,0,0,1,.1.05.12.12,0,0,1,0,.1v.39a.06.06,0,0,0,0,0l0,0a1.66,1.66,0,0,1,1.39-.66,2.3,2.3,0,0,1,1.44.46,2.61,2.61,0,0,1,.87,1.29A4.46,4.46,0,0,1,163.08,29.32Zm-1.75,0a2.38,2.38,0,0,0-.25-1.2.93.93,0,0,0-.89-.52.89.89,0,0,0-.83.52,2.48,2.48,0,0,0-.25,1.21,2.44,2.44,0,0,0,.27,1.25.87.87,0,0,0,.81.48,1,1,0,0,0,.84-.47A2.34,2.34,0,0,0,161.33,29.3Z" fill="#393d4f"/><path d="M117.28,32.28,115.78,29s0-.05-.07-.05h-1.12a.05.05,0,0,0-.06.06v3.28a.14.14,0,0,1-.14.14H113a.14.14,0,0,1-.14-.14V24.14a.15.15,0,0,1,0-.11.18.18,0,0,1,.1,0h3.44a2.92,2.92,0,0,1,1.35.31,2.33,2.33,0,0,1,.9.89,2.75,2.75,0,0,1,.31,1.33,2.38,2.38,0,0,1-.4,1.4,2.22,2.22,0,0,1-1.14.82s-.06.05,0,.09L119,32.22a.2.2,0,0,1,0,.08c0,.06,0,.09-.14.09h-1.47A.16.16,0,0,1,117.28,32.28Zm-2.75-6.78v2.06a.05.05,0,0,0,.06.06h1.57a1.18,1.18,0,0,0,.83-.3,1,1,0,0,0,.31-.78,1,1,0,0,0-.31-.79,1.18,1.18,0,0,0-.83-.31h-1.57A.05.05,0,0,0,114.53,25.5Z" fill="#393d4f"/><path d="M125.83,29.32a4.72,4.72,0,0,1-.23,1.5,2.68,2.68,0,0,1-.87,1.22,2.38,2.38,0,0,1-1.47.45,1.63,1.63,0,0,1-1.35-.6,0,0,0,0,0,0,0,.05.05,0,0,0,0,.05v2.57a.14.14,0,0,1-.14.14h-1.41a.14.14,0,0,1-.14-.14V26.37a.12.12,0,0,1,0-.1.14.14,0,0,1,.1-.05h1.41a.14.14,0,0,1,.1.05.12.12,0,0,1,0,.1v.39a0,0,0,0,0,0,0l0,0a1.66,1.66,0,0,1,1.39-.66,2.3,2.3,0,0,1,1.44.46,2.61,2.61,0,0,1,.87,1.29A4.45,4.45,0,0,1,125.83,29.32Zm-1.76,0a2.38,2.38,0,0,0-.25-1.2.93.93,0,0,0-.89-.52.89.89,0,0,0-.83.52,2.48,2.48,0,0,0-.25,1.21,2.44,2.44,0,0,0,.27,1.25.87.87,0,0,0,.81.48,1,1,0,0,0,.84-.47A2.34,2.34,0,0,0,124.07,29.3Z" fill="#393d4f"/><line y1="89.33" x2="450.54" y2="89.33" fill="none" stroke="#82459b" stroke-miterlimit="10" stroke-width="1.5"/><line y1="49.87" x2="450.54" y2="49.87" fill="none" stroke="#15bef0" stroke-miterlimit="10" stroke-width="1.5"/><line y1="3.31" x2="450.54" y2="3.31" fill="none" stroke="#00ae81" stroke-miterlimit="10" stroke-width="1.5"/><g id="e3475d8a-94f5-4904-a65b-94f6f4cbd072" data-name="Junction Point (Filled)"><path d="M107.18,3.31h0a2.88,2.88,0,0,0-5.75,0,2.88,2.88,0,0,0,5.75,0Z" fill="#393d4f" stroke="#393d4f" stroke-miterlimit="14.3"/><path d="M144.43,3.31h0a2.88,2.88,0,0,0-5.75,0,2.88,2.88,0,0,0,5.75,0Z" fill="#393d4f" stroke="#393d4f" stroke-miterlimit="14.3"/><path d="M107.18,49.87h0a2.88,2.88,0,1,0-2.87,2.81,2.84,2.84,0,0,0,2.87-2.81Z" fill="#393d4f" stroke="#393d4f" stroke-miterlimit="14.3"/><path d="M144.43,89.33h0a2.88,2.88,0,1,0-2.88,2.81,2.84,2.84,0,0,0,2.88-2.81Z" fill="#393d4f" stroke="#393d4f" stroke-miterlimit="14.3"/><line x1="55.59" y1="49.87" x2="55.59" y2="124.8" fill="none" stroke="#15bef0" stroke-miterlimit="10" stroke-width="1.5"/><line x1="35.47" y1="89.33" x2="35.47" y2="124.8" fill="none" stroke="#82459b" stroke-miterlimit="10" stroke-width="1.5"/><path d="M58.47,49.87h0a2.88,2.88,0,1,0-2.88,2.81,2.84,2.84,0,0,0,2.88-2.81Z" fill="#393d4f" stroke="#393d4f" stroke-miterlimit="14.3"/><path d="M38.35,89.33h0a2.88,2.88,0,1,0-2.88,2.81,2.84,2.84,0,0,0,2.88-2.81Z" fill="#393d4f" stroke="#393d4f" stroke-miterlimit="14.3"/><line x1="183.67" y1="49.87" x2="183.67" y2="124.8" fill="none" stroke="#15bef0" stroke-miterlimit="10" stroke-width="1.5"/><line x1="166.43" y1="89.33" x2="166.43" y2="124.8" fill="none" stroke="#82459b" stroke-miterlimit="10" stroke-width="1.5"/><path d="M186.54,49.87h0a2.88,2.88,0,1,0-2.87,2.81,2.84,2.84,0,0,0,2.87-2.81Z" fill="#393d4f" stroke="#393d4f" stroke-miterlimit="14.3"/><path d="M169.3,89.33h0a2.88,2.88,0,1,0-2.87,2.81,2.84,2.84,0,0,0,2.87-2.81Z" fill="#393d4f" stroke="#393d4f" stroke-miterlimit="14.3"/><line x1="269.18" y1="49.87" x2="269.18" y2="124.8" fill="none" stroke="#15bef0" stroke-miterlimit="10" stroke-width="1.5"/><line x1="253.88" y1="89.33" x2="253.88" y2="124.8" fill="none" stroke="#82459b" stroke-miterlimit="10" stroke-width="1.5"/><path d="M272.06,49.87h0a2.88,2.88,0,1,0-2.88,2.81,2.84,2.84,0,0,0,2.88-2.81Z" fill="#393d4f" stroke="#393d4f" stroke-miterlimit="14.3"/><path d="M256.76,89.33h0a2.88,2.88,0,1,0-2.88,2.81,2.84,2.84,0,0,0,2.88-2.81Z" fill="#393d4f" stroke="#393d4f" stroke-miterlimit="14.3"/><line x1="355.14" y1="49.87" x2="355.14" y2="124.8" fill="none" stroke="#15bef0" stroke-miterlimit="10" stroke-width="1.5"/><line x1="341.51" y1="89.33" x2="341.51" y2="124.8" fill="none" stroke="#82459b" stroke-miterlimit="10" stroke-width="1.5"/><path d="M358,49.87h0a2.88,2.88,0,1,0-2.88,2.81A2.84,2.84,0,0,0,358,49.87Z" fill="#393d4f" stroke="#393d4f" stroke-miterlimit="14.3"/><path d="M344.38,89.33h0a2.88,2.88,0,1,0-2.87,2.81,2.84,2.84,0,0,0,2.87-2.81Z" fill="#393d4f" stroke="#393d4f" stroke-miterlimit="14.3"/><rect x="23.38" y="124.8" width="62.52" height="35.24" fill="#bbe1d2" stroke="#393d4f" stroke-miterlimit="10" stroke-width="1.5"/><rect x="152.41" y="124.8" width="62.52" height="35.24" fill="#fbc8b4" stroke="#393d4f" stroke-miterlimit="10" stroke-width="1.5"/><rect x="237.92" y="124.8" width="62.52" height="35.24" fill="#fbc8b4" stroke="#393d4f" stroke-miterlimit="10" stroke-width="1.5"/><rect x="323.88" y="124.8" width="62.52" height="35.24" fill="#fbc8b4" stroke="#393d4f" stroke-miterlimit="10" stroke-width="1.5"/></g><g id="a0303791-cd49-4878-b92d-d16e28434c52" data-name="Resistor (Vert.)"><polygon points="126.29 99.78 126.29 117.51 123.77 116.62 123.77 98.89 126.29 99.78" fill="#fff"/><polyline points="104.19 49.87 104.19 36.94 101.86 35.68 106.79 32.8 101.83 29.84 106.79 26.92 101.86 24.09 106.79 21.17 104.19 19.64 104.19 3.31" fill="none" stroke="#393d4f" stroke-miterlimit="14.3" stroke-width="1.5"/><polyline points="141.44 89.33 141.44 36.94 139.1 35.68 144.03 32.8 139.07 29.84 144.03 26.92 139.1 24.09 144.03 21.17 141.44 19.64 141.44 3.31" fill="none" stroke="#393d4f" stroke-miterlimit="14.3" stroke-width="1.5"/></g><path d="M48.67,137.57h1.4a.14.14,0,0,1,.1.05.12.12,0,0,1,0,.1v8.11a.14.14,0,0,1-.14.14h-1.4a.15.15,0,0,1-.11,0,.18.18,0,0,1,0-.1v-5.29s0,0,0,0,0,0,0,0l-1.27,2a.2.2,0,0,1-.17.09H46.3a.2.2,0,0,1-.17-.09l-1.27-2s0,0,0,0,0,0,0,.05v5.28a.14.14,0,0,1-.14.14H43.24a.14.14,0,0,1-.14-.14v-8.11a.12.12,0,0,1,0-.1.14.14,0,0,1,.1-.05h1.41a.19.19,0,0,1,.16.1l1.8,2.8s0,0,.08,0l1.81-2.8A.19.19,0,0,1,48.67,137.57Z" fill="#393d4f"/><path d="M55.42,140a2.34,2.34,0,0,1,1,.74,1.77,1.77,0,0,1,.34,1v4.07a.18.18,0,0,1,0,.1.15.15,0,0,1-.11,0h-1.4a.14.14,0,0,1-.14-.14v-.4s0,0,0,0,0,0,0,0a1.89,1.89,0,0,1-1.62.66,2.34,2.34,0,0,1-1.51-.46,1.61,1.61,0,0,1-.57-1.34,1.71,1.71,0,0,1,.64-1.43,3,3,0,0,1,1.85-.51H55a.05.05,0,0,0,.06-.06V142a.81.81,0,0,0-.24-.62,1.07,1.07,0,0,0-.72-.22,1.39,1.39,0,0,0-.62.13.63.63,0,0,0-.32.38.15.15,0,0,1-.16.12l-1.45-.2c-.09,0-.14-.05-.13-.1a1.66,1.66,0,0,1,.4-.92,2.36,2.36,0,0,1,.94-.63,3.58,3.58,0,0,1,1.3-.23A3.41,3.41,0,0,1,55.42,140Zm-.75,4.55a.85.85,0,0,0,.36-.7v-.44a.05.05,0,0,0-.06-.06H54.1a1.45,1.45,0,0,0-.84.21.64.64,0,0,0-.31.57.62.62,0,0,0,.23.51.89.89,0,0,0,.61.19A1.38,1.38,0,0,0,54.67,144.53Z" fill="#393d4f"/><path d="M58.14,138.84a.95.95,0,0,1,.68-1.63.92.92,0,0,1,1,.95,1,1,0,0,1-1.63.68ZM58,145.93a.14.14,0,0,1,0-.1v-5.89a.18.18,0,0,1,.15-.15h1.4a.18.18,0,0,1,.15.15v5.89a.14.14,0,0,1,0,.1.12.12,0,0,1-.1,0H58.1A.12.12,0,0,1,58,145.93Z" fill="#393d4f"/><path d="M65.73,140.3a2.15,2.15,0,0,1,.59,1.59v3.94a.18.18,0,0,1,0,.1.15.15,0,0,1-.11,0h-1.4a.14.14,0,0,1-.14-.14v-3.59a1.12,1.12,0,0,0-.27-.78,1,1,0,0,0-1.43,0,1.12,1.12,0,0,0-.27.78v3.59a.18.18,0,0,1,0,.1.15.15,0,0,1-.11,0h-1.4a.14.14,0,0,1-.14-.14V140a.14.14,0,0,1,.14-.14h1.4a.15.15,0,0,1,.11,0,.18.18,0,0,1,0,.1v.42a.08.08,0,0,0,0,0s0,0,0,0a1.66,1.66,0,0,1,1.46-.7A2.1,2.1,0,0,1,65.73,140.3Z" fill="#393d4f"/><path d="M175.26,137.62a.16.16,0,0,1,.11-.05h1.4a.14.14,0,0,1,.1.05.12.12,0,0,1,0,.1v8.11a.14.14,0,0,1-.14.14h-1.36a.16.16,0,0,1-.16-.09l-3.11-5.14s0,0,0,0,0,0,0,.06l0,5.06a.14.14,0,0,1-.14.14h-1.41a.14.14,0,0,1-.14-.14v-8.11a.12.12,0,0,1,0-.1.14.14,0,0,1,.1-.05h1.36a.19.19,0,0,1,.17.1l3.09,5.11s0,0,.05,0,0,0,0-.05v-5A.15.15,0,0,1,175.26,137.62Z" fill="#393d4f"/><path d="M179.27,145.54a2.65,2.65,0,0,1-1-1.44,4.28,4.28,0,0,1-.17-1.22,4.49,4.49,0,0,1,.17-1.27,2.62,2.62,0,0,1,1-1.4,3,3,0,0,1,1.73-.5,2.85,2.85,0,0,1,1.68.5,2.64,2.64,0,0,1,1,1.38,4,4,0,0,1,.19,1.26,4,4,0,0,1-.17,1.22,2.7,2.7,0,0,1-1,1.47,3.07,3.07,0,0,1-3.45,0Zm2.4-1.16a1.36,1.36,0,0,0,.39-.66,3.22,3.22,0,0,0,.1-.84,3,3,0,0,0-.1-.85,1.27,1.27,0,0,0-.41-.64,1,1,0,0,0-.67-.23,1,1,0,0,0-.68.23,1.25,1.25,0,0,0-.39.64,3,3,0,0,0-.09.85,3.6,3.6,0,0,0,.08.84,1.37,1.37,0,0,0,.4.66,1,1,0,0,0,.69.24A1,1,0,0,0,181.67,144.38Z" fill="#393d4f"/><path d="M188.82,137.62a.16.16,0,0,1,.11-.05h1.4a.14.14,0,0,1,.1.05.12.12,0,0,1,0,.1v8.11a.14.14,0,0,1-.14.14h-1.4a.15.15,0,0,1-.11,0,.18.18,0,0,1,0-.1v-.4a.05.05,0,0,0,0,0,.06.06,0,0,0,0,0,1.65,1.65,0,0,1-1.38.66,2.33,2.33,0,0,1-1.45-.47,2.62,2.62,0,0,1-.87-1.28,4.89,4.89,0,0,1-.2-1.45,4.45,4.45,0,0,1,.22-1.49,2.54,2.54,0,0,1,.87-1.22,2.34,2.34,0,0,1,1.47-.45,1.62,1.62,0,0,1,1.34.6s0,0,0,0,0,0,0,0v-2.57A.15.15,0,0,1,188.82,137.62Zm0,5.27a2.57,2.57,0,0,0-.26-1.26.9.9,0,0,0-.81-.47.94.94,0,0,0-.85.47,2.34,2.34,0,0,0-.3,1.27,2.54,2.54,0,0,0,.25,1.2,1,1,0,0,0,.89.52.92.92,0,0,0,.84-.52A2.55,2.55,0,0,0,188.77,142.89Z" fill="#393d4f"/><path d="M197.25,143.27a.14.14,0,0,1-.15.15h-3.71s-.06,0,0,.06a2.85,2.85,0,0,0,.13.48,1.27,1.27,0,0,0,1.28.67A1.47,1.47,0,0,0,196,144a.14.14,0,0,1,.11-.08.15.15,0,0,1,.08,0l.86.85a.17.17,0,0,1,.06.11.22.22,0,0,1,0,.1,2.68,2.68,0,0,1-1,.76,3.45,3.45,0,0,1-1.37.27,3.15,3.15,0,0,1-1.75-.47,2.57,2.57,0,0,1-1-1.31,4,4,0,0,1-.26-1.57,3.41,3.41,0,0,1,.18-1.16,2.7,2.7,0,0,1,1-1.36,2.75,2.75,0,0,1,1.64-.5,2.66,2.66,0,0,1,1.92.69,3.09,3.09,0,0,1,.89,1.86A5.58,5.58,0,0,1,197.25,143.27Zm-3.84-1.4a2.49,2.49,0,0,0-.08.38.05.05,0,0,0,.06.06h2.08s.06,0,0-.06q-.06-.34-.06-.33a1,1,0,0,0-.37-.56,1.13,1.13,0,0,0-.67-.2A1,1,0,0,0,193.41,141.87Z" fill="#393d4f"/><path d="M260.77,137.62a.16.16,0,0,1,.11-.05h1.4a.14.14,0,0,1,.1.05.12.12,0,0,1,.05.1v8.11a.14.14,0,0,1-.05.1.13.13,0,0,1-.1,0h-1.35a.18.18,0,0,1-.17-.09l-3.11-5.14s0,0,0,0,0,0,0,.06l0,5.06a.14.14,0,0,1-.14.14h-1.41a.14.14,0,0,1-.14-.14v-8.11a.12.12,0,0,1,0-.1.14.14,0,0,1,.1-.05h1.36a.18.18,0,0,1,.17.1l3.09,5.11s0,0,.05,0,0,0,0-.05l0-5A.15.15,0,0,1,260.77,137.62Z" fill="#393d4f"/><path d="M264.78,145.54a2.65,2.65,0,0,1-1-1.44,4.28,4.28,0,0,1-.17-1.22,4.49,4.49,0,0,1,.17-1.27,2.62,2.62,0,0,1,1-1.4,3,3,0,0,1,1.73-.5,2.85,2.85,0,0,1,1.68.5,2.64,2.64,0,0,1,1,1.38,4,4,0,0,1,.19,1.26,4,4,0,0,1-.17,1.22,2.7,2.7,0,0,1-1,1.47,3.07,3.07,0,0,1-3.45,0Zm2.4-1.16a1.36,1.36,0,0,0,.39-.66,3.22,3.22,0,0,0,.1-.84,3,3,0,0,0-.1-.85,1.27,1.27,0,0,0-.41-.64,1,1,0,0,0-.67-.23,1,1,0,0,0-.68.23,1.25,1.25,0,0,0-.39.64,3,3,0,0,0-.09.85,3.6,3.6,0,0,0,.08.84,1.37,1.37,0,0,0,.4.66,1,1,0,0,0,.69.24A1,1,0,0,0,267.18,144.38Z" fill="#393d4f"/><path d="M274.34,137.62a.12.12,0,0,1,.1-.05h1.4a.12.12,0,0,1,.1.05.12.12,0,0,1,0,.1v8.11a.13.13,0,0,1,0,.1.12.12,0,0,1-.1,0h-1.4a.12.12,0,0,1-.1,0,.14.14,0,0,1,0-.1v-.4s0,0,0,0a.06.06,0,0,0,0,0,1.63,1.63,0,0,1-1.38.66,2.33,2.33,0,0,1-1.45-.47,2.62,2.62,0,0,1-.87-1.28,4.89,4.89,0,0,1-.2-1.45,4.45,4.45,0,0,1,.22-1.49,2.54,2.54,0,0,1,.87-1.22,2.34,2.34,0,0,1,1.47-.45,1.62,1.62,0,0,1,1.34.6s0,0,0,0,0,0,0,0v-2.57A.12.12,0,0,1,274.34,137.62Zm-.06,5.27a2.57,2.57,0,0,0-.26-1.26.9.9,0,0,0-.81-.47.94.94,0,0,0-.85.47,2.34,2.34,0,0,0-.3,1.27,2.54,2.54,0,0,0,.25,1.2,1,1,0,0,0,.89.52.92.92,0,0,0,.84-.52A2.55,2.55,0,0,0,274.28,142.89Z" fill="#393d4f"/><path d="M282.76,143.27a.13.13,0,0,1-.15.15H278.9s-.06,0,0,.06a2.85,2.85,0,0,0,.13.48,1.27,1.27,0,0,0,1.28.67,1.47,1.47,0,0,0,1.21-.62.14.14,0,0,1,.11-.08.15.15,0,0,1,.08,0l.86.85a.2.2,0,0,1,.07.11.29.29,0,0,1,0,.1,2.68,2.68,0,0,1-1,.76,3.45,3.45,0,0,1-1.37.27,3.15,3.15,0,0,1-1.75-.47,2.63,2.63,0,0,1-1-1.31,4.06,4.06,0,0,1-.25-1.57,3.42,3.42,0,0,1,.17-1.16,2.7,2.7,0,0,1,1-1.36,2.75,2.75,0,0,1,1.64-.5,2.7,2.7,0,0,1,1.93.69,3.13,3.13,0,0,1,.88,1.86A5.58,5.58,0,0,1,282.76,143.27Zm-3.83-1.4a2.38,2.38,0,0,0-.09.38.05.05,0,0,0,.06.06H281s.06,0,0-.06c0-.23,0-.34,0-.33a1.08,1.08,0,0,0-.38-.56,1.13,1.13,0,0,0-.67-.2A1,1,0,0,0,278.93,141.87Z" fill="#393d4f"/><path d="M346.74,137.62a.12.12,0,0,1,.1-.05h1.4a.16.16,0,0,1,.11.05.15.15,0,0,1,0,.1v8.11a.18.18,0,0,1,0,.1.15.15,0,0,1-.11,0h-1.35a.18.18,0,0,1-.17-.09l-3.11-5.14a.05.05,0,0,0-.05,0s0,0,0,.06l0,5.06a.14.14,0,0,1-.14.14H342a.13.13,0,0,1-.1,0,.18.18,0,0,1,0-.1v-8.11a.15.15,0,0,1,0-.1.14.14,0,0,1,.1-.05h1.36a.18.18,0,0,1,.17.1l3.1,5.11s0,0,0,0,0,0,0-.05l0-5A.12.12,0,0,1,346.74,137.62Z" fill="#393d4f"/><path d="M350.74,145.54a2.65,2.65,0,0,1-1-1.44,4.29,4.29,0,0,1-.16-1.22,4.5,4.5,0,0,1,.16-1.27,2.62,2.62,0,0,1,1-1.4,3,3,0,0,1,1.73-.5,2.85,2.85,0,0,1,1.68.5,2.64,2.64,0,0,1,1,1.38,4,4,0,0,1,.19,1.26,4.34,4.34,0,0,1-.16,1.22,2.77,2.77,0,0,1-1,1.47,3.07,3.07,0,0,1-3.45,0Zm2.4-1.16a1.36,1.36,0,0,0,.39-.66,3.22,3.22,0,0,0,.1-.84,3,3,0,0,0-.1-.85,1.26,1.26,0,0,0-.4-.64,1.05,1.05,0,0,0-.68-.23,1,1,0,0,0-.67.23,1.25,1.25,0,0,0-.39.64,2.61,2.61,0,0,0-.1.85,3.6,3.6,0,0,0,.08.84,1.31,1.31,0,0,0,.41.66,1.08,1.08,0,0,0,1.36,0Z" fill="#393d4f"/><path d="M360.3,137.62a.12.12,0,0,1,.1-.05h1.4a.18.18,0,0,1,.15.15v8.11a.14.14,0,0,1-.05.1.12.12,0,0,1-.1,0h-1.4a.12.12,0,0,1-.1,0,.13.13,0,0,1,0-.1v-.4s0,0,0,0a.06.06,0,0,0-.05,0,1.63,1.63,0,0,1-1.38.66,2.28,2.28,0,0,1-1.44-.47,2.5,2.5,0,0,1-.87-1.28,4.57,4.57,0,0,1-.21-1.45,4.45,4.45,0,0,1,.22-1.49,2.54,2.54,0,0,1,.87-1.22,2.36,2.36,0,0,1,1.47-.45,1.61,1.61,0,0,1,1.34.6s0,0,.05,0,0,0,0,0v-2.57A.12.12,0,0,1,360.3,137.62Zm-.06,5.27a2.57,2.57,0,0,0-.26-1.26.88.88,0,0,0-.8-.47,1,1,0,0,0-.86.47,2.34,2.34,0,0,0-.3,1.27,2.67,2.67,0,0,0,.25,1.2,1,1,0,0,0,.89.52.92.92,0,0,0,.84-.52A2.55,2.55,0,0,0,360.24,142.89Z" fill="#393d4f"/><path d="M368.73,143.27a.14.14,0,0,1-.16.15h-3.71c-.05,0-.06,0-.05.06a2.18,2.18,0,0,0,.14.48,1.24,1.24,0,0,0,1.27.67,1.46,1.46,0,0,0,1.21-.62.14.14,0,0,1,.11-.08.15.15,0,0,1,.08,0l.87.85a.17.17,0,0,1,.06.11.29.29,0,0,1-.05.1,2.68,2.68,0,0,1-1,.76,3.42,3.42,0,0,1-1.37.27,3.15,3.15,0,0,1-1.75-.47,2.63,2.63,0,0,1-1-1.31,4.06,4.06,0,0,1-.25-1.57,3.41,3.41,0,0,1,.18-1.16,2.62,2.62,0,0,1,1-1.36,2.75,2.75,0,0,1,1.64-.5,2.7,2.7,0,0,1,1.93.69,3.13,3.13,0,0,1,.88,1.86A5.53,5.53,0,0,1,368.73,143.27Zm-3.84-1.4a2.38,2.38,0,0,0-.09.38.05.05,0,0,0,.06.06h2.08c.05,0,.06,0,.05-.06l-.06-.33a1.08,1.08,0,0,0-.38-.56,1.11,1.11,0,0,0-.67-.2A1,1,0,0,0,364.89,141.87Z" fill="#393d4f"/></g></svg>